<?xml version="1.0" encoding="iso-8859-1"?>
<!-- Generator: Adobe Illustrator 19.0.0, SVG Export Plug-In . SVG Version: 6.00 Build 0)  -->
<svg version="1.1" id="Layer_1" xmlns="http://www.w3.org/2000/svg" xmlns:xlink="http://www.w3.org/1999/xlink" x="0px" y="0px"
	 viewBox="0 0 512 512" style="enable-background:new 0 0 512 512;" xml:space="preserve">
<g>
	<g>
		<rect x="320.944" y="95.873" width="15.606" height="24.012"/>
	</g>
</g>
<g>
	<g>
		<polygon points="336.549,63.849 336.549,0 8.695,0 8.695,512 336.549,512 336.549,151.918 320.943,151.918 320.943,496.394 
			24.301,496.394 24.301,15.606 320.943,15.606 320.943,63.849 		"/>
	</g>
</g>
<g>
	<g>
		<polygon points="302.507,64.633 302.507,32.38 39.285,32.38 39.285,481.835 302.507,481.835 302.507,152.027 286.901,152.027 
			286.901,466.229 54.891,466.229 54.891,47.987 286.901,47.987 286.901,64.633 		"/>
	</g>
</g>
<g>
	<g>
		<rect x="286.902" y="95.842" width="15.606" height="23.929"/>
	</g>
</g>
<g>
	<g>
		<rect x="272.336" y="72.953" width="88.434" height="15.606"/>
	</g>
</g>
<g>
	<g>
		<rect x="272.336" y="129.135" width="88.434" height="15.606"/>
	</g>
</g>
<g>
	<g>
		<path d="M487.699,367.39v10.404h-12.581c-4.447-8.392-11.319-15.306-19.672-19.812v-13.481h10.404v-15.606h-64.505v15.606h6.242
			v15.005c-7.168,4.473-13.055,10.798-17.029,18.288h-15.223V367.39h-15.606v64.505h15.606v-7.283h16.428
			c3.919,6.545,9.357,12.075,15.825,16.11v17.183h-6.242v15.606h64.505v-15.606h-10.404v-15.68
			c7.616-4.11,14.011-10.204,18.446-17.613h13.806v7.283h15.606V367.39H487.699z M375.335,409.006V393.4h10.14
			c-0.31,2.195-0.482,4.434-0.482,6.714c0,3.039,0.298,6.008,0.842,8.892H375.335z M423.194,344.501h16.646v8.294
			c-2.289-0.338-4.63-0.517-7.011-0.517c-3.299,0-6.522,0.336-9.635,0.975V344.501z M439.84,457.905h-16.646v-10.932
			c3.113,0.64,6.336,0.975,9.635,0.975c2.384,0,4.721-0.19,7.011-0.53V457.905z M432.829,432.343
			c-17.771,0-32.23-14.457-32.23-32.229s14.457-32.23,32.23-32.23c17.77,0,32.229,14.457,32.229,32.23
			C465.058,417.885,450.599,432.343,432.829,432.343z M487.699,409.006h-7.878c0.544-2.883,0.842-5.853,0.842-8.892
			c0-2.28-0.171-4.518-0.481-6.714h7.517V409.006z"/>
	</g>
</g>
<g>
	<g>
		<rect x="481.072" y="71.85" width="15.606" height="40.032"/>
	</g>
</g>
<g>
	<g>
		<polygon points="401.006,40.032 401.006,63.844 416.612,63.844 416.612,55.638 473.063,55.638 473.063,63.847 488.669,63.847 
			488.669,40.032 		"/>
	</g>
</g>
<g>
	<g>
		<rect x="393.002" y="71.85" width="15.606" height="40.034"/>
	</g>
</g>
<g>
	<g>
		<polygon points="473.063,119.893 473.063,184.146 416.612,184.146 416.612,119.89 401.006,119.89 401.006,199.752 
			488.669,199.752 488.669,119.893 		"/>
	</g>
</g>
<g>
	<g>
		<polygon points="472.093,207.168 472.093,217.572 415.911,217.572 415.911,207.168 400.305,207.168 400.305,233.178 
			487.699,233.178 487.699,207.168 		"/>
	</g>
</g>
<g>
	<g>
		<rect x="80.902" y="81.276" width="31.212" height="15.606"/>
	</g>
</g>
<g>
	<g>
		<rect x="120.438" y="120.812" width="71.788" height="15.606"/>
	</g>
</g>
<g>
	<g>
		<rect x="104.832" y="153.064" width="15.606" height="15.606"/>
	</g>
</g>
<g>
	<g>
		<rect x="192.225" y="225.892" width="48.899" height="15.606"/>
	</g>
</g>
<g>
	<g>
		<rect x="96.508" y="257.104" width="88.434" height="15.606"/>
	</g>
</g>
<g>
	<g>
		<rect x="184.943" y="306.003" width="80.111" height="15.606"/>
	</g>
</g>
<g>
	<g>
		<rect x="161.013" y="321.609" width="23.929" height="15.606"/>
	</g>
</g>
<g>
	<g>
		<rect x="65.295" y="313.286" width="22.889" height="15.606"/>
	</g>
</g>
<g>
	<g>
		<rect x="216.155" y="81.276" width="24.97" height="15.606"/>
	</g>
</g>
<g>
	<g>
		<rect x="96.508" y="393.397" width="80.111" height="15.606"/>
	</g>
</g>
<g>
	<g>
		<rect x="168.296" y="432.932" width="57.222" height="15.606"/>
	</g>
</g>
<g>
</g>
<g>
</g>
<g>
</g>
<g>
</g>
<g>
</g>
<g>
</g>
<g>
</g>
<g>
</g>
<g>
</g>
<g>
</g>
<g>
</g>
<g>
</g>
<g>
</g>
<g>
</g>
<g>
</g>
</svg>
